<?xml version="1.0" encoding="utf-8"?>
<!DOCTYPE svg PUBLIC "-//W3C//DTD SVG 1.0//EN" "http://www.w3.org/TR/2001/REC-SVG-20010904/DTD/svg10.dtd">
<svg version="1.0" xmlns="http://www.w3.org/2000/svg" width="2110px" height="1729px" viewBox="0 0 2110 1729" preserveAspectRatio="xMidYMid meet">
 <g fill="#ffffff">
  <path d="M6 1727.2 c-6.1 -3 -6.1 -2.9 -5.8 -67.7 0.3 -65.1 0 -62.4 7.5 -64.4 5.3 -1.5 1105.3 -1.5 1110.6 0 7.5 2 7.2 -0.7 7.5 64.4 0.3 64.8 0.3 64.7 -5.8 67.7 -3.3 1.7 -32 1.8 -557 1.8 -525 0 -553.7 -0.1 -557 -1.8z"/>
  <path d="M1157 1727.2 c-6.1 -3 -6.1 -2.9 -5.8 -67.7 0.3 -65.1 0 -62.4 7.5 -64.4 5.2 -1.5 146.4 -1.5 151.6 0 7.5 2 7.2 -0.7 7.5 64.4 0.3 64.8 0.3 64.7 -5.8 67.7 -3.2 1.7 -9.1 1.8 -77.5 1.8 -68.4 0 -74.3 -0.1 -77.5 -1.8z"/>
  <path d="M1352 1727.2 c-2.4 -1.1 -3.9 -2.8 -4.7 -5.2 -1.6 -4.6 -1.8 -114.7 -0.2 -120.3 2 -7.5 -0.3 -7.2 60.4 -7.2 60.7 0 58.4 -0.3 60.4 7.2 1.6 5.6 1.4 115.7 -0.2 120.3 -0.8 2.4 -2.3 4.1 -4.7 5.2 -3.2 1.6 -8 1.8 -55.5 1.8 -47.5 0 -52.3 -0.2 -55.5 -1.8z"/>
  <path d="M6 1534.2 c-6.1 -3 -6.1 -2.9 -5.8 -67.7 0.3 -65.1 0 -62.4 7.5 -64.4 5.3 -1.5 537.3 -1.5 542.6 0 7.5 2 7.2 -0.7 7.5 64.4 0.3 64.8 0.3 64.7 -5.8 67.7 -3.3 1.7 -18.4 1.8 -273 1.8 -254.6 0 -269.7 -0.1 -273 -1.8z"/>
  <path d="M587 1534.2 c-6.1 -3 -6.1 -2.9 -5.8 -67.7 0.3 -65.1 0 -62.4 7.5 -64.4 5.3 -1.5 976.3 -1.5 981.6 0 7.5 2 7.2 -0.7 7.5 64.4 0.3 64.8 0.3 64.7 -5.8 67.7 -3.3 1.7 -29 1.8 -492.5 1.8 -463.5 0 -489.2 -0.1 -492.5 -1.8z"/>
  <path d="M3.3 1358 c-2.9 -1.2 -3.5 -5.1 -3.1 -19.8 0.2 -8.2 0.7 -12.5 1.6 -13.4 1.8 -1.8 26.6 -1.8 28.4 0 1.8 1.8 1.9 30.5 0 32.4 -1.6 1.6 -23.5 2.2 -26.9 0.8z"/>
  <path d="M99.3 1358 c-2.9 -1.2 -3.5 -5.1 -3.1 -19.8 0.2 -8.2 0.7 -12.5 1.6 -13.4 1.8 -1.8 26.6 -1.8 28.4 0 1.8 1.8 1.9 30.5 0 32.4 -1.6 1.6 -23.5 2.2 -26.9 0.8z"/>
  <path d="M197.3 1358 c-2.9 -1.2 -3.5 -5.1 -3.1 -19.8 0.2 -8.2 0.7 -12.5 1.6 -13.4 1.8 -1.8 26.6 -1.8 28.4 0 1.8 1.8 1.9 30.5 0 32.4 -1.6 1.6 -23.5 2.2 -26.9 0.8z"/>
  <path d="M6 1277.2 c-6.1 -3 -6.1 -2.9 -5.8 -67.7 0.3 -65.1 0 -62.4 7.5 -64.4 5.3 -1.5 782.3 -1.5 787.6 0 7.5 2 7.2 -0.7 7.5 64.4 0.3 64.8 0.3 64.7 -5.8 67.7 -3.3 1.7 -24.3 1.8 -395.5 1.8 -371.2 0 -392.2 -0.1 -395.5 -1.8z"/>
  <path d="M832 1277.2 c-6.1 -3 -6.1 -2.9 -5.8 -67.7 0.3 -65.1 0 -62.4 7.5 -64.4 5.3 -1.5 427.3 -1.5 432.6 0 7.5 2 7.2 -0.7 7.5 64.4 0.3 64.8 0.3 64.7 -5.8 67.7 -3.3 1.7 -15.8 1.8 -218 1.8 -202.2 0 -214.7 -0.1 -218 -1.8z"/>
  <path d="M1305 1277.2 c-6.1 -3 -6.1 -2.9 -5.8 -67.7 0.3 -65.1 0 -62.4 7.5 -64.4 5.3 -1.5 537.3 -1.5 542.6 0 7.5 2 7.2 -0.7 7.5 64.4 0.3 64.8 0.3 64.7 -5.8 67.7 -3.3 1.7 -18.4 1.8 -273 1.8 -254.6 0 -269.7 -0.1 -273 -1.8z"/>
  <path d="M6 1088.2 c-6.1 -3 -6.1 -2.9 -5.8 -67.7 0.3 -65.1 0 -62.4 7.5 -64.4 5.3 -1.5 432.3 -1.5 437.6 0 7.5 2 7.2 -0.7 7.5 64.4 0.3 64.8 0.3 64.7 -5.8 67.7 -3.3 1.7 -15.9 1.8 -220.5 1.8 -204.6 0 -217.2 -0.1 -220.5 -1.8z"/>
  <path d="M482 1088.2 c-6.1 -3 -6.1 -2.9 -5.8 -67.7 0.3 -65.1 0 -62.4 7.5 -64.4 5.3 -1.5 233.3 -1.5 238.6 0 7.5 2 7.2 -0.7 7.5 64.4 0.3 64.8 0.3 64.7 -5.8 67.7 -3.3 1.7 -11.1 1.8 -121 1.8 -109.9 0 -117.7 -0.1 -121 -1.8z"/>
  <path d="M758 1088.2 c-6.1 -3 -6.1 -2.9 -5.8 -67.7 0.3 -65.1 0 -62.4 7.5 -64.4 5.3 -1.5 522.3 -1.5 527.6 0 7.5 2 7.2 -0.7 7.5 64.4 0.3 64.8 0.3 64.7 -5.8 67.7 -3.3 1.7 -18.1 1.8 -265.5 1.8 -247.4 0 -262.2 -0.1 -265.5 -1.8z"/>
  <path d="M1324 1088.2 c-6.1 -3 -6.1 -2.9 -5.8 -67.7 0.3 -65.1 0 -62.4 7.5 -64.4 5.3 -1.5 771.3 -1.5 776.6 0 7.5 2 7.2 -0.7 7.5 64.4 0.3 64.8 0.3 64.7 -5.8 67.7 -3.3 1.7 -24 1.8 -390 1.8 -366 0 -386.7 -0.1 -390 -1.8z"/>
  <path d="M6 899.2 c-6.1 -3 -6.1 -2.9 -5.8 -67.7 0.3 -65.1 0 -62.4 7.5 -64.4 5.3 -1.5 1126.3 -1.5 1131.6 0 7.5 2 7.2 -0.7 7.5 64.4 0.3 64.8 0.3 64.7 -5.8 67.7 -3.3 1.7 -32.5 1.8 -567.5 1.8 -535 0 -564.2 -0.1 -567.5 -1.8z"/>
  <path d="M6 710.2 c-6.1 -3 -6.1 -2.9 -5.8 -67.7 0.3 -65.1 0 -62.4 7.5 -64.4 5.2 -1.5 152.4 -1.5 157.6 0 7.5 2 7.2 -0.7 7.5 64.4 0.3 64.8 0.3 64.7 -5.8 67.7 -3.2 1.7 -9.2 1.8 -80.5 1.8 -71.3 0 -77.3 -0.1 -80.5 -1.8z"/>
  <path d="M197 710.2 c-6.1 -3 -6.1 -2.9 -5.8 -67.7 0.3 -65.1 0 -62.4 7.5 -64.4 5.3 -1.5 806.3 -1.5 811.6 0 7.5 2 7.2 -0.7 7.5 64.4 0.3 64.8 0.3 64.7 -5.8 67.7 -3.3 1.7 -24.9 1.8 -407.5 1.8 -382.6 0 -404.2 -0.1 -407.5 -1.8z"/>
  <path d="M1044 710.2 c-6.1 -3 -6.1 -2.9 -5.8 -67.7 0.3 -65.1 0 -62.4 7.5 -64.4 5.3 -1.5 688.3 -1.5 693.6 0 7.5 2 7.2 -0.7 7.5 64.4 0.3 64.8 0.3 64.7 -5.8 67.7 -3.3 1.7 -22 1.8 -348.5 1.8 -326.5 0 -345.2 -0.1 -348.5 -1.8z"/>
  <path d="M1770 710.2 c-6.1 -3 -6.1 -2.9 -5.8 -67.7 0.3 -65.1 0 -62.4 7.5 -64.4 5.3 -1.5 325.3 -1.5 330.6 0 7.5 2 7.2 -0.7 7.5 64.4 0.3 64.8 0.3 64.7 -5.8 67.7 -3.3 1.7 -13.3 1.8 -167 1.8 -153.7 0 -163.7 -0.1 -167 -1.8z"/>
  <path d="M6 517.2 c-6.1 -3 -6.1 -2.9 -5.8 -67.7 0.3 -65.1 0 -62.4 7.5 -64.4 5.3 -1.5 325.3 -1.5 330.6 0 7.5 2 7.2 -0.7 7.5 64.4 0.3 64.8 0.3 64.7 -5.8 67.7 -3.3 1.7 -13.3 1.8 -167 1.8 -153.7 0 -163.7 -0.1 -167 -1.8z"/>
  <path d="M371 516.2 c-6.1 -3 -6.1 -2.9 -5.8 -67.7 0.3 -65.1 0 -62.4 7.5 -64.4 5.3 -1.5 642.3 -1.5 647.6 0 7.5 2 7.2 -0.7 7.5 64.4 0.3 64.8 0.3 64.7 -5.8 67.7 -3.3 1.7 -20.9 1.8 -325.5 1.8 -304.6 0 -322.2 -0.1 -325.5 -1.8z"/>
  <path d="M1053 516.2 c-6.1 -3 -6.1 -2.9 -5.8 -67.7 0.3 -65.1 0 -62.4 7.5 -64.4 5.3 -1.5 245.3 -1.5 250.6 0 7.5 2 7.2 -0.7 7.5 64.4 0.3 64.8 0.3 64.7 -5.8 67.7 -3.3 1.7 -11.4 1.8 -127 1.8 -115.6 0 -123.7 -0.1 -127 -1.8z"/>
  <path d="M6 322.2 c-6.1 -3 -6.1 -2.9 -5.8 -67.7 0.3 -65.1 0 -62.4 7.5 -64.4 5.3 -1.5 554.3 -1.5 559.6 0 7.5 2 7.2 -0.7 7.5 64.4 0.3 64.8 0.3 64.7 -5.8 67.7 -3.3 1.7 -18.8 1.8 -281.5 1.8 -262.7 0 -278.2 -0.1 -281.5 -1.8z"/>
  <path d="M601 322.2 c-6.1 -3 -6.1 -2.9 -5.8 -67.7 0.3 -65.1 0 -62.4 7.5 -64.4 5.3 -1.5 658.3 -1.5 663.6 0 7.5 2 7.2 -0.7 7.5 64.4 0.3 64.8 0.3 64.7 -5.8 67.7 -3.3 1.7 -21.3 1.8 -333.5 1.8 -312.2 0 -330.2 -0.1 -333.5 -1.8z"/>
  <path d="M6 133.2 c-6.1 -3 -6.1 -2.9 -5.8 -67.7 0.3 -65.1 0 -62.4 7.5 -64.4 5.2 -1.5 211.4 -1.5 216.6 0 7.5 2 7.2 -0.7 7.5 64.4 0.3 64.8 0.3 64.7 -5.8 67.7 -3.3 1.7 -10.6 1.8 -110 1.8 -99.4 0 -106.7 -0.1 -110 -1.8z"/>
  <path d="M258 133.2 c-6.1 -3 -6.1 -2.9 -5.8 -67.7 0.3 -65.1 0 -62.4 7.5 -64.4 5.3 -1.5 738.3 -1.5 743.6 0 7.5 2 7.2 -0.7 7.5 64.4 0.3 64.8 0.3 64.7 -5.8 67.7 -3.3 1.7 -23.2 1.8 -373.5 1.8 -350.3 0 -370.2 -0.1 -373.5 -1.8z"/>
 </g>
</svg>